<mxfile host="app.diagrams.net" modified="2020-09-23T10:05:03.451Z" agent="5.0 (Windows NT 6.1; Win64; x64) AppleWebKit/537.36 (KHTML, like Gecko) Chrome/85.0.4183.121 Safari/537.36" etag="EYAbbyDnQs9Dye4xArgI" version="13.7.3" type="github">
  <diagram id="C5RBs43oDa-KdzZeNtuy" name="Page-1">
    <mxGraphModel dx="1038" dy="532" grid="1" gridSize="10" guides="1" tooltips="1" connect="1" arrows="1" fold="1" page="1" pageScale="1" pageWidth="827" pageHeight="1169" math="0" shadow="0">
      <root>
        <mxCell id="WIyWlLk6GJQsqaUBKTNV-0" />
        <mxCell id="WIyWlLk6GJQsqaUBKTNV-1" parent="WIyWlLk6GJQsqaUBKTNV-0" />
        <mxCell id="p-poBL5CAFz2ABC6DZPX-92" value="" style="edgeStyle=orthogonalEdgeStyle;rounded=0;orthogonalLoop=1;jettySize=auto;html=1;" parent="WIyWlLk6GJQsqaUBKTNV-1" source="p-poBL5CAFz2ABC6DZPX-26" target="p-poBL5CAFz2ABC6DZPX-91" edge="1">
          <mxGeometry relative="1" as="geometry" />
        </mxCell>
        <mxCell id="p-poBL5CAFz2ABC6DZPX-26" value="本地仓库" style="shape=cylinder3;whiteSpace=wrap;html=1;boundedLbl=1;backgroundOutline=1;size=15;fillColor=#fff2cc;strokeColor=#d6b656;" parent="WIyWlLk6GJQsqaUBKTNV-1" vertex="1">
          <mxGeometry x="210" y="950" width="90" height="80" as="geometry" />
        </mxCell>
        <mxCell id="p-poBL5CAFz2ABC6DZPX-27" value="N1" style="shape=cylinder3;whiteSpace=wrap;html=1;boundedLbl=1;backgroundOutline=1;size=15;fillColor=#f5f5f5;strokeColor=#666666;fontColor=#333333;" parent="WIyWlLk6GJQsqaUBKTNV-1" vertex="1">
          <mxGeometry x="400" y="810" width="90" height="80" as="geometry" />
        </mxCell>
        <mxCell id="p-poBL5CAFz2ABC6DZPX-34" value="Yes" style="text;html=1;align=center;verticalAlign=middle;resizable=0;points=[];autosize=1;" parent="WIyWlLk6GJQsqaUBKTNV-1" vertex="1">
          <mxGeometry x="330" y="900" width="40" height="20" as="geometry" />
        </mxCell>
        <mxCell id="p-poBL5CAFz2ABC6DZPX-35" value="" style="endArrow=classic;startArrow=classic;html=1;entryX=0.5;entryY=1;entryDx=0;entryDy=0;entryPerimeter=0;fillColor=#b0e3e6;strokeColor=#0e8088;strokeWidth=2;exitX=0;exitY=0.5;exitDx=0;exitDy=0;exitPerimeter=0;" parent="WIyWlLk6GJQsqaUBKTNV-1" source="p-poBL5CAFz2ABC6DZPX-40" target="p-poBL5CAFz2ABC6DZPX-26" edge="1">
          <mxGeometry width="50" height="50" relative="1" as="geometry">
            <mxPoint x="400" y="1150" as="sourcePoint" />
            <mxPoint x="580" y="1100" as="targetPoint" />
          </mxGeometry>
        </mxCell>
        <mxCell id="p-poBL5CAFz2ABC6DZPX-36" value="" style="endArrow=classic;startArrow=classic;html=1;exitX=0.5;exitY=0;exitDx=0;exitDy=0;exitPerimeter=0;fillColor=#b0e3e6;strokeColor=#0e8088;strokeWidth=2;" parent="WIyWlLk6GJQsqaUBKTNV-1" source="p-poBL5CAFz2ABC6DZPX-26" edge="1">
          <mxGeometry width="50" height="50" relative="1" as="geometry">
            <mxPoint x="530" y="1030" as="sourcePoint" />
            <mxPoint x="400" y="850" as="targetPoint" />
          </mxGeometry>
        </mxCell>
        <mxCell id="p-poBL5CAFz2ABC6DZPX-37" value="" style="endArrow=classic;startArrow=classic;html=1;exitX=1;exitY=0;exitDx=0;exitDy=52.5;exitPerimeter=0;fillColor=#b0e3e6;strokeColor=#0e8088;strokeWidth=2;" parent="WIyWlLk6GJQsqaUBKTNV-1" source="p-poBL5CAFz2ABC6DZPX-26" edge="1">
          <mxGeometry width="50" height="50" relative="1" as="geometry">
            <mxPoint x="320" y="1020" as="sourcePoint" />
            <mxPoint x="400" y="1003" as="targetPoint" />
          </mxGeometry>
        </mxCell>
        <mxCell id="p-poBL5CAFz2ABC6DZPX-38" value="No" style="text;html=1;align=center;verticalAlign=middle;resizable=0;points=[];autosize=1;" parent="WIyWlLk6GJQsqaUBKTNV-1" vertex="1">
          <mxGeometry x="330" y="970" width="40" height="20" as="geometry" />
        </mxCell>
        <mxCell id="p-poBL5CAFz2ABC6DZPX-40" value="N1" style="shape=cylinder3;whiteSpace=wrap;html=1;boundedLbl=1;backgroundOutline=1;size=15;fillColor=#f5f5f5;strokeColor=#666666;fontColor=#333333;" parent="WIyWlLk6GJQsqaUBKTNV-1" vertex="1">
          <mxGeometry x="400" y="1120" width="90" height="80" as="geometry" />
        </mxCell>
        <mxCell id="p-poBL5CAFz2ABC6DZPX-41" value="N1" style="shape=cylinder3;whiteSpace=wrap;html=1;boundedLbl=1;backgroundOutline=1;size=15;fillColor=#f5f5f5;strokeColor=#666666;fontColor=#333333;" parent="WIyWlLk6GJQsqaUBKTNV-1" vertex="1">
          <mxGeometry x="400" y="960" width="90" height="80" as="geometry" />
        </mxCell>
        <mxCell id="p-poBL5CAFz2ABC6DZPX-42" value="N2" style="shape=cylinder3;whiteSpace=wrap;html=1;boundedLbl=1;backgroundOutline=1;size=15;fillColor=#dae8fc;strokeColor=#6c8ebf;" parent="WIyWlLk6GJQsqaUBKTNV-1" vertex="1">
          <mxGeometry x="570" y="960" width="90" height="80" as="geometry" />
        </mxCell>
        <mxCell id="p-poBL5CAFz2ABC6DZPX-43" value="" style="endArrow=classic;startArrow=classic;html=1;exitX=1;exitY=0.5;exitDx=0;exitDy=0;exitPerimeter=0;entryX=0;entryY=0.5;entryDx=0;entryDy=0;entryPerimeter=0;fillColor=#b0e3e6;strokeColor=#0e8088;strokeWidth=2;" parent="WIyWlLk6GJQsqaUBKTNV-1" source="p-poBL5CAFz2ABC6DZPX-41" target="p-poBL5CAFz2ABC6DZPX-42" edge="1">
          <mxGeometry width="50" height="50" relative="1" as="geometry">
            <mxPoint x="530" y="1030" as="sourcePoint" />
            <mxPoint x="580" y="980" as="targetPoint" />
          </mxGeometry>
        </mxCell>
        <mxCell id="p-poBL5CAFz2ABC6DZPX-44" value="Yes" style="text;html=1;align=center;verticalAlign=middle;resizable=0;points=[];autosize=1;" parent="WIyWlLk6GJQsqaUBKTNV-1" vertex="1">
          <mxGeometry x="515" y="970" width="40" height="20" as="geometry" />
        </mxCell>
        <mxCell id="p-poBL5CAFz2ABC6DZPX-85" style="edgeStyle=orthogonalEdgeStyle;rounded=0;orthogonalLoop=1;jettySize=auto;html=1;entryX=0;entryY=0.5;entryDx=0;entryDy=0;strokeWidth=2;" parent="WIyWlLk6GJQsqaUBKTNV-1" source="p-poBL5CAFz2ABC6DZPX-46" target="p-poBL5CAFz2ABC6DZPX-84" edge="1">
          <mxGeometry relative="1" as="geometry" />
        </mxCell>
        <mxCell id="p-poBL5CAFz2ABC6DZPX-46" value="N2" style="shape=cylinder3;whiteSpace=wrap;html=1;boundedLbl=1;backgroundOutline=1;size=15;fillColor=#dae8fc;strokeColor=#6c8ebf;" parent="WIyWlLk6GJQsqaUBKTNV-1" vertex="1">
          <mxGeometry x="570" y="1120" width="90" height="80" as="geometry" />
        </mxCell>
        <mxCell id="p-poBL5CAFz2ABC6DZPX-47" value="No" style="text;html=1;align=center;verticalAlign=middle;resizable=0;points=[];autosize=1;" parent="WIyWlLk6GJQsqaUBKTNV-1" vertex="1">
          <mxGeometry x="330" y="1070" width="40" height="20" as="geometry" />
        </mxCell>
        <mxCell id="p-poBL5CAFz2ABC6DZPX-48" value="" style="endArrow=classic;startArrow=classic;html=1;exitX=1;exitY=0.5;exitDx=0;exitDy=0;exitPerimeter=0;entryX=0;entryY=0.5;entryDx=0;entryDy=0;entryPerimeter=0;strokeWidth=2;fillColor=#b0e3e6;strokeColor=#0e8088;" parent="WIyWlLk6GJQsqaUBKTNV-1" source="p-poBL5CAFz2ABC6DZPX-40" target="p-poBL5CAFz2ABC6DZPX-46" edge="1">
          <mxGeometry width="50" height="50" relative="1" as="geometry">
            <mxPoint x="530" y="1200" as="sourcePoint" />
            <mxPoint x="580" y="1150" as="targetPoint" />
          </mxGeometry>
        </mxCell>
        <mxCell id="p-poBL5CAFz2ABC6DZPX-49" value="No" style="text;html=1;align=center;verticalAlign=middle;resizable=0;points=[];autosize=1;" parent="WIyWlLk6GJQsqaUBKTNV-1" vertex="1">
          <mxGeometry x="515" y="1130" width="40" height="20" as="geometry" />
        </mxCell>
        <mxCell id="p-poBL5CAFz2ABC6DZPX-68" value="" style="endArrow=classic;startArrow=classic;html=1;exitX=1;exitY=0.5;exitDx=0;exitDy=0;fillColor=#b1ddf0;strokeColor=#10739e;strokeWidth=2;" parent="WIyWlLk6GJQsqaUBKTNV-1" edge="1">
          <mxGeometry width="50" height="50" relative="1" as="geometry">
            <mxPoint x="130" y="990" as="sourcePoint" />
            <mxPoint x="210" y="990" as="targetPoint" />
          </mxGeometry>
        </mxCell>
        <mxCell id="v3agJQC7jBekaLf4iyz--32" style="edgeStyle=orthogonalEdgeStyle;rounded=0;orthogonalLoop=1;jettySize=auto;html=1;entryX=0.5;entryY=0;entryDx=0;entryDy=0;strokeWidth=2;" edge="1" parent="WIyWlLk6GJQsqaUBKTNV-1" source="p-poBL5CAFz2ABC6DZPX-84" target="v3agJQC7jBekaLf4iyz--17">
          <mxGeometry relative="1" as="geometry" />
        </mxCell>
        <mxCell id="p-poBL5CAFz2ABC6DZPX-84" value="ITIL提申请" style="rhombus;whiteSpace=wrap;html=1;shadow=0;fontFamily=Helvetica;fontSize=12;align=center;strokeWidth=1;spacing=6;spacingTop=-4;fillColor=#b1ddf0;strokeColor=#10739e;" parent="WIyWlLk6GJQsqaUBKTNV-1" vertex="1">
          <mxGeometry x="880" y="1120" width="120" height="80" as="geometry" />
        </mxCell>
        <mxCell id="p-poBL5CAFz2ABC6DZPX-91" value="开发人员" style="rounded=1;whiteSpace=wrap;html=1;fillColor=#dae8fc;strokeColor=#6c8ebf;" parent="WIyWlLk6GJQsqaUBKTNV-1" vertex="1">
          <mxGeometry x="10" y="960" width="120" height="60" as="geometry" />
        </mxCell>
        <mxCell id="v3agJQC7jBekaLf4iyz--24" style="edgeStyle=orthogonalEdgeStyle;rounded=0;orthogonalLoop=1;jettySize=auto;html=1;entryX=1;entryY=0.5;entryDx=0;entryDy=0;entryPerimeter=0;strokeWidth=2;" edge="1" parent="WIyWlLk6GJQsqaUBKTNV-1" source="v3agJQC7jBekaLf4iyz--29" target="p-poBL5CAFz2ABC6DZPX-42">
          <mxGeometry relative="1" as="geometry">
            <Array as="points" />
          </mxGeometry>
        </mxCell>
        <mxCell id="v3agJQC7jBekaLf4iyz--38" style="edgeStyle=orthogonalEdgeStyle;rounded=0;orthogonalLoop=1;jettySize=auto;html=1;strokeWidth=2;entryX=0.5;entryY=1;entryDx=0;entryDy=0;" edge="1" parent="WIyWlLk6GJQsqaUBKTNV-1" source="p-poBL5CAFz2ABC6DZPX-93" target="p-poBL5CAFz2ABC6DZPX-96">
          <mxGeometry relative="1" as="geometry">
            <mxPoint x="930" y="1460" as="targetPoint" />
            <Array as="points">
              <mxPoint x="1140" y="1490" />
              <mxPoint x="940" y="1490" />
            </Array>
          </mxGeometry>
        </mxCell>
        <mxCell id="p-poBL5CAFz2ABC6DZPX-93" value="开源卫士" style="rhombus;whiteSpace=wrap;html=1;shadow=0;fontFamily=Helvetica;fontSize=12;align=center;strokeWidth=1;spacing=6;spacingTop=-4;fillColor=#b1ddf0;strokeColor=#10739e;" parent="WIyWlLk6GJQsqaUBKTNV-1" vertex="1">
          <mxGeometry x="1080" y="1370" width="120" height="80" as="geometry" />
        </mxCell>
        <mxCell id="v3agJQC7jBekaLf4iyz--13" style="edgeStyle=orthogonalEdgeStyle;rounded=0;orthogonalLoop=1;jettySize=auto;html=1;entryX=0.5;entryY=0;entryDx=0;entryDy=0;strokeWidth=2;" edge="1" parent="WIyWlLk6GJQsqaUBKTNV-1" source="p-poBL5CAFz2ABC6DZPX-105" target="p-poBL5CAFz2ABC6DZPX-117">
          <mxGeometry relative="1" as="geometry" />
        </mxCell>
        <mxCell id="v3agJQC7jBekaLf4iyz--42" style="edgeStyle=orthogonalEdgeStyle;rounded=0;orthogonalLoop=1;jettySize=auto;html=1;entryX=1;entryY=0.5;entryDx=0;entryDy=0;strokeWidth=2;" edge="1" parent="WIyWlLk6GJQsqaUBKTNV-1" source="p-poBL5CAFz2ABC6DZPX-105" target="v3agJQC7jBekaLf4iyz--1">
          <mxGeometry relative="1" as="geometry">
            <Array as="points">
              <mxPoint x="370" y="1550" />
              <mxPoint x="370" y="1690" />
            </Array>
          </mxGeometry>
        </mxCell>
        <mxCell id="p-poBL5CAFz2ABC6DZPX-105" value="开源" style="rounded=0;whiteSpace=wrap;html=1;fillColor=#f5f5f5;strokeColor=#666666;fontColor=#333333;" parent="WIyWlLk6GJQsqaUBKTNV-1" vertex="1">
          <mxGeometry x="555" y="1520" width="120" height="60" as="geometry" />
        </mxCell>
        <mxCell id="v3agJQC7jBekaLf4iyz--3" style="edgeStyle=orthogonalEdgeStyle;rounded=0;orthogonalLoop=1;jettySize=auto;html=1;entryX=0.5;entryY=0;entryDx=0;entryDy=0;strokeWidth=2;" edge="1" parent="WIyWlLk6GJQsqaUBKTNV-1" source="p-poBL5CAFz2ABC6DZPX-106" target="v3agJQC7jBekaLf4iyz--1">
          <mxGeometry relative="1" as="geometry" />
        </mxCell>
        <mxCell id="p-poBL5CAFz2ABC6DZPX-106" value="非开源" style="rounded=0;whiteSpace=wrap;html=1;fillColor=#f5f5f5;strokeColor=#666666;fontColor=#333333;" parent="WIyWlLk6GJQsqaUBKTNV-1" vertex="1">
          <mxGeometry x="10" y="1520" width="120" height="60" as="geometry" />
        </mxCell>
        <mxCell id="p-poBL5CAFz2ABC6DZPX-113" value="maven中央仓库&lt;br&gt;有该开源组件" style="text;html=1;align=center;verticalAlign=middle;resizable=0;points=[];autosize=1;" parent="WIyWlLk6GJQsqaUBKTNV-1" vertex="1">
          <mxGeometry x="490" y="1600" width="130" height="30" as="geometry" />
        </mxCell>
        <mxCell id="p-poBL5CAFz2ABC6DZPX-115" value="&lt;span style=&quot;color: rgb(0 , 0 , 0) ; font-family: &amp;#34;helvetica&amp;#34; ; font-size: 12px ; font-style: normal ; font-weight: 400 ; letter-spacing: normal ; text-align: center ; text-indent: 0px ; text-transform: none ; word-spacing: 0px ; background-color: rgb(248 , 249 , 250) ; display: inline ; float: none&quot;&gt;maven中央仓库&lt;br&gt;没有该&lt;/span&gt;&lt;span style=&quot;color: rgb(0 , 0 , 0) ; font-family: &amp;#34;helvetica&amp;#34; ; font-size: 12px ; font-style: normal ; font-weight: 400 ; letter-spacing: normal ; text-align: center ; text-indent: 0px ; text-transform: none ; word-spacing: 0px ; background-color: rgb(248 , 249 , 250) ; display: inline ; float: none&quot;&gt;开源组件&lt;/span&gt;" style="text;whiteSpace=wrap;html=1;" parent="WIyWlLk6GJQsqaUBKTNV-1" vertex="1">
          <mxGeometry x="180" y="1640" width="170" height="40" as="geometry" />
        </mxCell>
        <mxCell id="p-poBL5CAFz2ABC6DZPX-117" value="持续集成&lt;br&gt;相关人员" style="rounded=1;whiteSpace=wrap;html=1;fillColor=#dae8fc;strokeColor=#6c8ebf;" parent="WIyWlLk6GJQsqaUBKTNV-1" vertex="1">
          <mxGeometry x="555" y="1660" width="120" height="60" as="geometry" />
        </mxCell>
        <mxCell id="p-poBL5CAFz2ABC6DZPX-128" style="edgeStyle=orthogonalEdgeStyle;rounded=0;orthogonalLoop=1;jettySize=auto;html=1;entryX=0.5;entryY=0;entryDx=0;entryDy=0;strokeWidth=2;" parent="WIyWlLk6GJQsqaUBKTNV-1" source="p-poBL5CAFz2ABC6DZPX-125" target="p-poBL5CAFz2ABC6DZPX-106" edge="1">
          <mxGeometry relative="1" as="geometry" />
        </mxCell>
        <mxCell id="v3agJQC7jBekaLf4iyz--11" style="edgeStyle=orthogonalEdgeStyle;rounded=0;orthogonalLoop=1;jettySize=auto;html=1;entryX=0.5;entryY=0;entryDx=0;entryDy=0;strokeWidth=2;exitX=1;exitY=0.5;exitDx=0;exitDy=0;" edge="1" parent="WIyWlLk6GJQsqaUBKTNV-1" source="p-poBL5CAFz2ABC6DZPX-125" target="p-poBL5CAFz2ABC6DZPX-105">
          <mxGeometry relative="1" as="geometry">
            <mxPoint x="370" y="1510" as="sourcePoint" />
            <Array as="points">
              <mxPoint x="430" y="1470" />
              <mxPoint x="615" y="1470" />
            </Array>
          </mxGeometry>
        </mxCell>
        <mxCell id="p-poBL5CAFz2ABC6DZPX-125" value="下载人员" style="rhombus;whiteSpace=wrap;html=1;shadow=0;fontFamily=Helvetica;fontSize=12;align=center;strokeWidth=1;spacing=6;spacingTop=-4;fillColor=#b1ddf0;strokeColor=#10739e;" parent="WIyWlLk6GJQsqaUBKTNV-1" vertex="1">
          <mxGeometry x="310" y="1430" width="120" height="80" as="geometry" />
        </mxCell>
        <mxCell id="p-poBL5CAFz2ABC6DZPX-132" value="" style="endArrow=none;dashed=1;html=1;strokeWidth=2;fillColor=#dae8fc;strokeColor=#6c8ebf;" parent="WIyWlLk6GJQsqaUBKTNV-1" edge="1">
          <mxGeometry width="50" height="50" relative="1" as="geometry">
            <mxPoint x="845" y="1800" as="sourcePoint" />
            <mxPoint x="845" y="760" as="targetPoint" />
          </mxGeometry>
        </mxCell>
        <mxCell id="v3agJQC7jBekaLf4iyz--1" value="开发人员" style="rounded=1;whiteSpace=wrap;html=1;fillColor=#dae8fc;strokeColor=#6c8ebf;" vertex="1" parent="WIyWlLk6GJQsqaUBKTNV-1">
          <mxGeometry x="10" y="1660" width="120" height="60" as="geometry" />
        </mxCell>
        <mxCell id="v3agJQC7jBekaLf4iyz--4" value="" style="endArrow=none;dashed=1;html=1;strokeWidth=2;fillColor=#dae8fc;strokeColor=#6c8ebf;" edge="1" parent="WIyWlLk6GJQsqaUBKTNV-1">
          <mxGeometry width="50" height="50" relative="1" as="geometry">
            <mxPoint x="1280" y="1800" as="sourcePoint" />
            <mxPoint x="1280" y="760" as="targetPoint" />
          </mxGeometry>
        </mxCell>
        <mxCell id="v3agJQC7jBekaLf4iyz--5" value="" style="endArrow=none;dashed=1;html=1;strokeWidth=2;fillColor=#dae8fc;strokeColor=#6c8ebf;" edge="1" parent="WIyWlLk6GJQsqaUBKTNV-1">
          <mxGeometry width="50" height="50" relative="1" as="geometry">
            <mxPoint x="1034.5" y="1800" as="sourcePoint" />
            <mxPoint x="1034.5" y="760" as="targetPoint" />
          </mxGeometry>
        </mxCell>
        <mxCell id="v3agJQC7jBekaLf4iyz--26" style="edgeStyle=orthogonalEdgeStyle;rounded=0;orthogonalLoop=1;jettySize=auto;html=1;strokeWidth=2;" edge="1" parent="WIyWlLk6GJQsqaUBKTNV-1" source="p-poBL5CAFz2ABC6DZPX-96" target="p-poBL5CAFz2ABC6DZPX-93">
          <mxGeometry relative="1" as="geometry">
            <mxPoint x="960" y="1410" as="targetPoint" />
          </mxGeometry>
        </mxCell>
        <mxCell id="p-poBL5CAFz2ABC6DZPX-96" value="下载组件" style="rhombus;whiteSpace=wrap;html=1;shadow=0;fontFamily=Helvetica;fontSize=12;align=center;strokeWidth=1;spacing=6;spacingTop=-4;fillColor=#b1ddf0;strokeColor=#10739e;" parent="WIyWlLk6GJQsqaUBKTNV-1" vertex="1">
          <mxGeometry x="880" y="1370" width="120" height="80" as="geometry" />
        </mxCell>
        <mxCell id="v3agJQC7jBekaLf4iyz--14" value="" style="endArrow=none;dashed=1;html=1;strokeWidth=2;fillColor=#dae8fc;strokeColor=#6c8ebf;" edge="1" parent="WIyWlLk6GJQsqaUBKTNV-1">
          <mxGeometry width="50" height="50" relative="1" as="geometry">
            <mxPoint x="369" y="1400" as="sourcePoint" />
            <mxPoint x="369" y="760" as="targetPoint" />
          </mxGeometry>
        </mxCell>
        <mxCell id="v3agJQC7jBekaLf4iyz--15" value="&lt;font style=&quot;font-size: 18px&quot;&gt;&lt;b&gt;开发人员&lt;/b&gt;&lt;/font&gt;" style="text;html=1;align=center;verticalAlign=middle;resizable=0;points=[];autosize=1;" vertex="1" parent="WIyWlLk6GJQsqaUBKTNV-1">
          <mxGeometry x="145" y="760" width="90" height="20" as="geometry" />
        </mxCell>
        <mxCell id="v3agJQC7jBekaLf4iyz--16" value="持续集成系统" style="text;html=1;align=center;verticalAlign=middle;resizable=0;points=[];autosize=1;fontSize=18;fontStyle=1" vertex="1" parent="WIyWlLk6GJQsqaUBKTNV-1">
          <mxGeometry x="545" y="755" width="120" height="30" as="geometry" />
        </mxCell>
        <mxCell id="v3agJQC7jBekaLf4iyz--37" style="edgeStyle=orthogonalEdgeStyle;rounded=0;orthogonalLoop=1;jettySize=auto;html=1;entryX=0.5;entryY=0;entryDx=0;entryDy=0;strokeWidth=2;" edge="1" parent="WIyWlLk6GJQsqaUBKTNV-1" source="v3agJQC7jBekaLf4iyz--17" target="p-poBL5CAFz2ABC6DZPX-96">
          <mxGeometry relative="1" as="geometry" />
        </mxCell>
        <mxCell id="v3agJQC7jBekaLf4iyz--17" value="领导审核" style="rounded=0;whiteSpace=wrap;html=1;fillColor=#f5f5f5;strokeColor=#666666;fontColor=#333333;" vertex="1" parent="WIyWlLk6GJQsqaUBKTNV-1">
          <mxGeometry x="880" y="1260" width="120" height="60" as="geometry" />
        </mxCell>
        <mxCell id="v3agJQC7jBekaLf4iyz--27" value="ITIL系统" style="text;html=1;align=center;verticalAlign=middle;resizable=0;points=[];autosize=1;fontSize=18;fontStyle=1" vertex="1" parent="WIyWlLk6GJQsqaUBKTNV-1">
          <mxGeometry x="890" y="755" width="80" height="30" as="geometry" />
        </mxCell>
        <mxCell id="v3agJQC7jBekaLf4iyz--28" value="应用管理与安全室" style="text;html=1;align=center;verticalAlign=middle;resizable=0;points=[];autosize=1;fontSize=18;fontStyle=1" vertex="1" parent="WIyWlLk6GJQsqaUBKTNV-1">
          <mxGeometry x="1080" y="755" width="160" height="30" as="geometry" />
        </mxCell>
        <mxCell id="v3agJQC7jBekaLf4iyz--29" value="入库N2" style="rhombus;whiteSpace=wrap;html=1;shadow=0;fontFamily=Helvetica;fontSize=12;align=center;strokeWidth=1;spacing=6;spacingTop=-4;fillColor=#b1ddf0;strokeColor=#10739e;" vertex="1" parent="WIyWlLk6GJQsqaUBKTNV-1">
          <mxGeometry x="690" y="960" width="120" height="80" as="geometry" />
        </mxCell>
        <mxCell id="v3agJQC7jBekaLf4iyz--30" style="edgeStyle=orthogonalEdgeStyle;rounded=0;orthogonalLoop=1;jettySize=auto;html=1;entryX=1;entryY=0.5;entryDx=0;entryDy=0;entryPerimeter=0;strokeWidth=2;" edge="1" parent="WIyWlLk6GJQsqaUBKTNV-1" source="p-poBL5CAFz2ABC6DZPX-93" target="v3agJQC7jBekaLf4iyz--29">
          <mxGeometry relative="1" as="geometry">
            <mxPoint x="1190" y="1300" as="sourcePoint" />
            <mxPoint x="660" y="1000" as="targetPoint" />
            <Array as="points">
              <mxPoint x="1240" y="1410" />
              <mxPoint x="1240" y="1000" />
            </Array>
          </mxGeometry>
        </mxCell>
        <mxCell id="v3agJQC7jBekaLf4iyz--31" value="扫描安全" style="text;html=1;align=center;verticalAlign=middle;resizable=0;points=[];autosize=1;" vertex="1" parent="WIyWlLk6GJQsqaUBKTNV-1">
          <mxGeometry x="1120" y="970" width="80" height="20" as="geometry" />
        </mxCell>
        <mxCell id="v3agJQC7jBekaLf4iyz--39" value="扫描发现问题" style="text;html=1;align=center;verticalAlign=middle;resizable=0;points=[];autosize=1;" vertex="1" parent="WIyWlLk6GJQsqaUBKTNV-1">
          <mxGeometry x="980" y="1460" width="110" height="20" as="geometry" />
        </mxCell>
        <mxCell id="v3agJQC7jBekaLf4iyz--41" value="" style="endArrow=none;dashed=1;html=1;strokeWidth=2;entryX=0.5;entryY=0;entryDx=0;entryDy=0;exitX=0;exitY=0.5;exitDx=0;exitDy=0;" edge="1" parent="WIyWlLk6GJQsqaUBKTNV-1" source="p-poBL5CAFz2ABC6DZPX-96" target="p-poBL5CAFz2ABC6DZPX-125">
          <mxGeometry width="50" height="50" relative="1" as="geometry">
            <mxPoint x="400" y="1470" as="sourcePoint" />
            <mxPoint x="450" y="1420" as="targetPoint" />
            <Array as="points">
              <mxPoint x="370" y="1410" />
            </Array>
          </mxGeometry>
        </mxCell>
      </root>
    </mxGraphModel>
  </diagram>
</mxfile>
